<svg width="303" height="204" viewBox="0 0 303 204" fill="none" xmlns="http://www.w3.org/2000/svg">
<g clip-path="url(#clip0_364_13597)">
<rect x="11" y="150.07" width="50.857" height="50.857" rx="13" fill="#F0F1F2"/>
<rect x="18.3945" y="157.467" width="9.67283" height="9.67283" rx="1.8" fill="#1C63EC"/>
<rect x="31.4805" y="157.467" width="9.67283" height="9.67283" rx="1.8" fill="#1C63EC"/>
<rect x="31.4805" y="170.554" width="9.67283" height="9.67283" rx="1.8" fill="#1C63EC"/>
<rect x="31.4805" y="183.641" width="9.67283" height="9.67283" rx="1.8" fill="#1C63EC"/>
<rect x="18.3945" y="183.64" width="9.67283" height="9.67283" rx="1.8" fill="#1C63EC"/>
<rect x="44.5664" y="170.554" width="9.67283" height="9.67283" rx="1.8" fill="#1C63EC"/>
<rect x="18.3945" y="170.554" width="9.67283" height="9.67283" rx="1.8" fill="#1C63EC"/>
<rect x="44.5664" y="157.467" width="9.67283" height="9.67283" rx="1.8" fill="#1C63EC"/>
<rect x="52.0703" y="138.25" width="21.8283" height="21.8283" rx="10.9141" fill="#FA4D22"/>
<path d="M62.9358 153.594C61.4435 153.594 60.735 152.735 60.5542 151.408H58.9865C59.1523 153.217 60.4034 154.86 62.9207 154.86C65.016 154.86 66.8851 153.564 66.8851 151.092C66.8851 148.635 65.1818 147.339 63.2825 147.339C62.3329 147.339 61.5339 147.595 60.9762 148.092L61.338 145.168H66.448V143.736H60.0567L59.3332 149.705L60.8556 149.796C61.0968 149.193 61.8354 148.62 62.9057 148.62C64.0512 148.62 65.2421 149.389 65.2421 151.107C65.2421 152.69 64.202 153.594 62.9358 153.594Z" fill="white"/>
<rect x="11.4961" y="11.1792" width="51.3754" height="51.3754" rx="13" fill="#F0F1F2"/>
<path d="M24.7719 26.5695H20.9769C19.8927 26.5695 19.6758 27.0799 19.6758 27.6427C19.6758 28.6479 20.9624 33.6334 25.6663 40.227C28.8023 44.7299 33.2206 47.1708 37.2412 47.1708C39.6535 47.1708 39.9519 46.6287 39.9519 45.6948V42.2916C39.9519 41.2073 40.1804 40.9909 40.9443 40.9909C41.5071 40.9909 42.4721 41.2723 44.7236 43.4434C47.2967 46.0165 47.7209 47.1708 49.1683 47.1708H52.9633C54.0475 47.1708 54.5897 46.6287 54.2769 45.5588C53.9347 44.4925 52.7062 42.9454 51.076 41.1115C50.1915 40.0662 48.8647 38.9405 48.4626 38.3775C47.8998 37.6539 48.0606 37.3322 48.4626 36.6889L48.5302 36.5932C49.102 35.7804 53.1208 30.0177 53.5688 27.9644C53.8099 27.1603 53.5688 26.5695 52.4211 26.5695H48.6261C47.6612 26.5695 47.2163 27.0799 46.9751 27.6427C46.9751 27.6427 45.0452 32.3468 42.3113 35.4023C41.4268 36.2868 41.0247 36.5683 40.5422 36.5683C40.301 36.5683 39.9518 36.2868 39.9518 35.4828V27.9644C39.9518 26.9995 39.6718 26.5695 38.8676 26.5695H32.904C32.301 26.5695 31.9384 27.0173 31.9384 27.4418C31.9384 28.3565 33.3053 28.5675 33.4462 31.1406V36.7292C33.4462 37.9544 33.2249 38.1766 32.7424 38.1766C31.4559 38.1766 28.3264 33.4515 26.4704 28.0448C26.1066 26.994 25.7418 26.5695 24.7719 26.5695Z" fill="#1C63EC"/>
<rect x="52.0742" y="0.390991" width="21.8283" height="21.8283" rx="10.9141" fill="#FA4D22"/>
<path d="M59.7513 16.8051V5.87671H58.6208C58.0782 7.05246 57.234 7.24841 55.6814 7.29363V8.36386H58.1686V16.8051H59.7513ZM65.4085 15.7349C63.7655 15.7349 62.7707 14.2727 62.7707 11.3334C62.7707 8.42416 63.7655 6.93187 65.4085 6.93187C67.0817 6.93187 68.0464 8.42416 68.0464 11.3334C68.0464 14.2727 67.0817 15.7349 65.4085 15.7349ZM65.4085 17.0011C68.3328 17.0011 69.7045 14.7551 69.7045 11.3334C69.7045 7.92673 68.3328 5.68075 65.4085 5.68075C62.4993 5.68075 61.1126 7.92673 61.1126 11.3334C61.1126 14.7551 62.4993 17.0011 65.4085 17.0011Z" fill="white"/>
<rect x="11.4961" y="77.6176" width="51.3754" height="51.3754" rx="13" fill="#F0F1F2"/>
<path d="M20.8016 103.082C23.9818 101.367 27.5319 99.9364 30.8489 98.4983C36.5554 96.1426 42.2846 93.8278 48.0717 91.6728C49.1976 91.3056 51.2207 90.9466 51.419 92.5795C51.3104 94.891 50.8635 97.1889 50.5571 99.4868C49.7791 104.54 48.88 109.576 48.0032 114.613C47.7011 116.291 45.5536 117.159 44.1795 116.086C40.8772 113.903 37.5495 111.741 34.2894 109.507C33.2215 108.445 34.2118 106.92 35.1656 106.162C37.8854 103.539 40.7699 101.31 43.3475 98.5512C44.0429 96.908 41.9884 98.2928 41.3107 98.7172C37.5872 101.228 33.9549 103.893 30.0292 106.1C28.0239 107.18 25.6868 106.257 23.6824 105.654C21.8853 104.926 19.2518 104.192 20.8014 103.082L20.8016 103.082Z" fill="#1C63EC"/>
<rect x="52.0742" y="66.819" width="21.8283" height="21.8283" rx="10.9141" fill="#FA4D22"/>
<path d="M64.418 83.2331V72.3047H63.2875C62.7448 73.4804 61.9007 73.6764 60.3481 73.7216V74.7918H62.8352V83.2331H64.418Z" fill="white"/>
<path d="M70.668 32.3934C154.688 64.5131 179.259 -8.03357 240.564 65.5612" stroke="url(#paint0_linear_364_13597)" stroke-dasharray="5.72 3.82"/>
<path d="M229.008 104.796C199.282 114.848 126.107 123.593 126.853 89.428C127.424 63.2273 160.681 69.8976 162.277 88.1806C164.8 117.077 96.275 130.569 76.1719 113.559" stroke="url(#paint1_linear_364_13597)" stroke-dasharray="5.72 3.82"/>
<rect x="235" y="73.2857" width="55.7546" height="55.7546" rx="13" fill="#F0F1F2"/>
<path d="M282.999 97.5327C285.635 95.3813 287.319 92.1063 287.319 88.438C287.319 81.9584 282.066 76.7056 275.586 76.7056C272.25 76.7056 269.238 78.0984 267.102 80.3344C265.32 82.1993 264.04 84.3545 263.902 87.3697C263.885 87.7416 263.902 88.323 263.902 88.323C263.902 88.4295 263.886 88.5323 263.855 88.6288L263.856 88.6318C263.725 89.0463 263.337 89.3467 262.879 89.3467C262.421 89.3467 262.041 89.0677 261.903 88.6309C261.799 94.9971 256.644 100.114 250.277 100.17C250.697 100.271 251.017 100.631 251.056 101.072C251.059 101.102 251.061 101.134 251.061 101.165C251.061 101.641 250.736 102.041 250.296 102.156L250.294 102.156C250.211 102.178 250.125 102.189 250.035 102.189C250.035 102.189 249.572 102.178 249.275 102.189C246.16 102.301 243.91 103.613 241.998 105.47C239.802 107.602 238.438 110.585 238.438 113.888C238.438 120.368 243.69 125.62 250.17 125.62C253.915 125.62 257.25 123.866 259.398 121.134C260.759 119.404 261.732 117.554 261.854 114.964C261.871 114.591 261.854 114.008 261.854 114.008C261.854 113.9 261.87 113.797 261.901 113.7C261.802 107.398 256.587 102.302 250.296 102.158C256.588 102.301 261.804 107.397 261.903 113.7C262.033 113.285 262.42 112.985 262.878 112.984C262.879 112.922 262.879 112.86 262.879 112.798C262.879 112.86 262.88 112.922 262.881 112.984C263.338 112.985 263.725 113.285 263.856 113.699L263.855 113.702C263.886 113.798 263.902 113.901 263.902 114.008C263.902 114.008 263.885 114.586 263.902 114.956C264.023 117.551 264.997 119.404 266.361 121.137C268.509 123.867 271.843 125.62 275.587 125.62C282.066 125.62 287.319 120.368 287.319 113.888C287.319 110.584 285.953 107.599 283.756 105.467C281.843 103.611 279.595 102.301 276.482 102.189C276.185 102.178 275.721 102.189 275.721 102.189C275.631 102.189 275.545 102.178 275.462 102.156C275.022 102.041 274.698 101.641 274.698 101.165C274.698 101.134 274.699 101.103 274.702 101.073C274.742 100.632 275.061 100.271 275.481 100.17C275.558 100.152 275.638 100.142 275.721 100.142H276.444C278.932 99.9679 281.179 99.0181 282.999 97.5327Z" fill="#1C63EC"/>
<path d="M261.89 88.5676C261.894 88.5876 261.898 88.6084 261.901 88.6309C261.797 94.9971 256.642 100.114 250.276 100.17C250.198 100.152 250.118 100.142 250.035 100.142C250.035 100.142 249.612 100.151 249.341 100.142C246.575 100.05 244.575 99.017 242.754 97.53C240.12 95.3786 238.438 92.1047 238.438 88.438C238.438 81.9584 243.69 76.7056 250.17 76.7056C253.508 76.7056 256.52 78.0996 258.657 80.3372C260.436 82.2 261.607 84.6476 261.854 87.3622C261.875 87.5982 261.875 87.9045 261.875 88.1791C261.875 88.2732 261.874 88.3635 261.875 88.446C261.875 88.4892 261.882 88.5269 261.89 88.5676Z" fill="#1C63EC"/>
<rect x="279.836" y="67" width="21.8283" height="21.8283" rx="10.9141" fill="#FA4D22"/>
<path d="M287.837 83.4141V72.4857H286.706C286.164 73.6615 285.32 73.8574 283.767 73.9026V74.9729H286.254V83.4141H287.837ZM290.962 79.917C290.962 78.4398 291.896 77.445 293.238 77.445C294.564 77.445 295.499 78.4398 295.499 79.917C295.499 81.3792 294.549 82.3439 293.223 82.3439C291.881 82.3439 290.962 81.4093 290.962 79.917ZM293.358 73.5409C294.399 73.5409 295.137 74.0986 295.303 75.1236H296.946C296.75 73.6916 295.71 72.2898 293.509 72.2898C290.329 72.2898 289.198 75.1688 289.198 78.3042C289.198 81.5902 290.464 83.6101 293.238 83.6101C295.589 83.6101 297.142 81.9671 297.142 79.8567C297.142 77.6258 295.589 76.1335 293.569 76.1335C292.198 76.1335 291.308 76.7516 290.811 77.5354C290.856 75.1387 291.776 73.5409 293.358 73.5409Z" fill="white"/>
<path d="M72.3242 175.323C160.545 127.639 215.598 183.317 243.127 134.558" stroke="url(#paint2_linear_364_13597)" stroke-dasharray="5.72 3.82"/>
</g>
<defs>
<linearGradient id="paint0_linear_364_13597" x1="224.372" y1="65.5877" x2="69.0427" y2="65.5877" gradientUnits="userSpaceOnUse">
<stop stop-color="#F0F1F2"/>
<stop offset="1" stop-color="#F0F1F2" stop-opacity="0"/>
</linearGradient>
<linearGradient id="paint1_linear_364_13597" x1="224.368" y1="124.539" x2="68.0484" y2="124.539" gradientUnits="userSpaceOnUse">
<stop stop-color="#F0F1F2"/>
<stop offset="1" stop-color="#F0F1F2" stop-opacity="0"/>
</linearGradient>
<linearGradient id="paint2_linear_364_13597" x1="226.457" y1="141.844" x2="67.7344" y2="141.844" gradientUnits="userSpaceOnUse">
<stop stop-color="#F0F1F2"/>
<stop offset="1" stop-color="#F0F1F2" stop-opacity="0"/>
</linearGradient>
<clipPath id="clip0_364_13597">
<rect width="303" height="204" fill="white"/>
</clipPath>
</defs>
</svg>
