<svg width="122" height="88" viewBox="0 0 122 88" fill="none" xmlns="http://www.w3.org/2000/svg">
<g filter="url(#filter0_dddd_320_13775)">
<rect x="27" y="7" width="67.7958" height="34.5508" rx="17.2754" fill="#F0F1F2"/>
<path fill-rule="evenodd" clip-rule="evenodd" d="M49.3192 13.8838C52.0706 13.8838 54.6599 14.9454 56.6208 16.8808C58.612 18.8486 59.7088 21.4752 59.7088 24.2753C59.7088 27.0568 58.6216 29.6714 56.6443 31.6373C54.6811 33.5913 52.0801 34.6669 49.317 34.6669H49.2661C47.6898 34.6599 46.1762 34.3074 44.7692 33.6214C44.4145 33.4498 44.0066 33.4429 43.6473 33.6075C42.3932 34.18 40.9745 34.5346 39.4331 34.6644C39.2477 34.6806 39.0669 34.5949 38.9626 34.4395C38.8583 34.2841 38.8467 34.0848 38.9301 33.9179L40.46 30.8814C40.6594 30.4827 40.6432 30.0168 40.4114 29.632C39.4448 28.0305 38.9303 26.1875 38.9256 24.3077C38.9163 21.5448 39.9757 18.9416 41.9089 16.9784C43.8394 15.015 46.4263 13.9163 49.1894 13.8838H49.3192ZM47.5282 28.9961L46.6952 29.7858L42.4648 25.7755L46.6952 21.7651L47.5282 22.5548L44.7313 25.2019H51.8377C52.8988 25.2019 53.7598 24.3857 53.7598 23.3754C53.7598 22.3739 52.8941 21.5533 51.8377 21.5533H51.3165V20.4106H51.8377C53.5643 20.4106 54.9651 21.7386 54.9651 23.3754C54.9651 25.0122 53.5643 26.349 51.8377 26.349H44.7313L47.5282 28.9961Z" fill="#131313"/>
<path d="M69.9955 31.188V17.0977H68.5379C67.8383 18.6137 66.7499 18.8663 64.7481 18.9246V20.3045H67.9549V31.188H69.9955ZM76.9591 29.8081C75.0351 29.8081 74.0633 28.5643 73.8495 26.9318H71.8283C71.9838 29.3417 73.6552 31.4406 76.9202 31.4406C79.6605 31.4406 82.1093 30.0608 82.1093 27.2039C82.1093 25.7657 81.4485 24.3275 79.5439 23.7056C80.9432 23.1031 81.7401 21.8981 81.7401 20.4794C81.7401 17.8363 79.5051 16.8451 77.1146 16.8451C74.0828 16.8451 72.2364 18.5942 72.0227 21.1791H74.0439C74.2577 19.5465 75.2294 18.4582 77.0174 18.4582C78.4362 18.4582 79.6217 19.1773 79.6217 20.6543C79.6217 22.2091 78.4556 22.9088 76.104 22.9088H75.6958V24.6773H76.1817C78.3584 24.6773 79.9909 25.2992 79.9909 27.2427C79.9909 28.8752 78.7277 29.8081 76.9591 29.8081Z" fill="#140F0B"/>
</g>
<defs>
<filter id="filter0_dddd_320_13775" x="0.718977" y="0.429742" width="120.359" height="87.1128" filterUnits="userSpaceOnUse" color-interpolation-filters="sRGB">
<feFlood flood-opacity="0" result="BackgroundImageFix"/>
<feColorMatrix in="SourceAlpha" type="matrix" values="0 0 0 0 0 0 0 0 0 0 0 0 0 0 0 0 0 0 127 0" result="hardAlpha"/>
<feOffset/>
<feGaussianBlur stdDeviation="0.410641"/>
<feColorMatrix type="matrix" values="0 0 0 0 0 0 0 0 0 0 0 0 0 0 0 0 0 0 0.04 0"/>
<feBlend mode="normal" in2="BackgroundImageFix" result="effect1_dropShadow_320_13775"/>
<feColorMatrix in="SourceAlpha" type="matrix" values="0 0 0 0 0 0 0 0 0 0 0 0 0 0 0 0 0 0 127 0" result="hardAlpha"/>
<feOffset dy="3.28513"/>
<feGaussianBlur stdDeviation="3.28513"/>
<feColorMatrix type="matrix" values="0 0 0 0 0 0 0 0 0 0 0 0 0 0 0 0 0 0 0.04 0"/>
<feBlend mode="normal" in2="effect1_dropShadow_320_13775" result="effect2_dropShadow_320_13775"/>
<feColorMatrix in="SourceAlpha" type="matrix" values="0 0 0 0 0 0 0 0 0 0 0 0 0 0 0 0 0 0 127 0" result="hardAlpha"/>
<feOffset dy="13.1405"/>
<feGaussianBlur stdDeviation="9.85538"/>
<feColorMatrix type="matrix" values="0 0 0 0 0 0 0 0 0 0 0 0 0 0 0 0 0 0 0.04 0"/>
<feBlend mode="normal" in2="effect2_dropShadow_320_13775" result="effect3_dropShadow_320_13775"/>
<feColorMatrix in="SourceAlpha" type="matrix" values="0 0 0 0 0 0 0 0 0 0 0 0 0 0 0 0 0 0 127 0" result="hardAlpha"/>
<feOffset dy="19.7108"/>
<feGaussianBlur stdDeviation="13.1405"/>
<feColorMatrix type="matrix" values="0 0 0 0 0 0 0 0 0 0 0 0 0 0 0 0 0 0 0.04 0"/>
<feBlend mode="normal" in2="effect3_dropShadow_320_13775" result="effect4_dropShadow_320_13775"/>
<feBlend mode="normal" in="SourceGraphic" in2="effect4_dropShadow_320_13775" result="shape"/>
</filter>
</defs>
</svg>
