<svg width="117" height="33" viewBox="0 0 117 33" fill="none" xmlns="http://www.w3.org/2000/svg">
<g clip-path="url(#clip0_454_15668)">
<path d="M15.2636 8.224C15.2636 8.26592 15.2738 8.29968 15.2803 8.34431C15.3701 8.62858 15.6179 8.81013 15.9162 8.81013C16.2151 8.81013 16.4679 8.61368 16.5526 8.34297C16.5723 8.28012 16.5829 8.21327 16.5829 8.14394C16.5829 8.14394 16.5718 7.76558 16.5829 7.52356C16.6731 5.56132 17.5067 4.15872 18.667 2.94507C20.0583 1.48993 22.0193 0.583496 24.1923 0.583496C28.4121 0.583496 31.8329 4.00194 31.8329 8.2188C31.8329 10.606 30.7366 12.7374 29.0196 14.1375C27.8342 15.1042 26.3711 15.7223 24.7505 15.8353H24.2797C24.2257 15.8353 24.1733 15.8417 24.1231 15.8538C23.8496 15.9196 23.6417 16.1539 23.6158 16.4407L23.5524 16.441L23.6157 16.4412C23.6139 16.4611 23.613 16.4812 23.613 16.5015C23.613 16.8113 23.8246 17.0716 24.1112 17.1462C24.165 17.1602 24.2215 17.1677 24.2797 17.1677C24.2797 17.1677 24.5818 17.1607 24.7751 17.1677C26.8029 17.2407 28.267 18.0934 29.5122 19.3006C30.9435 20.6883 31.8329 22.6309 31.8329 24.7811C31.8329 28.998 28.4121 32.4164 24.1923 32.4164C21.7544 32.4164 19.5832 31.2755 18.1842 29.4988C17.2962 28.371 16.6615 27.1651 16.5829 25.4764C16.5717 25.2356 16.5829 24.8591 16.5829 24.8591C16.5829 24.7897 16.5723 24.7228 16.5526 24.6599C16.4679 24.3896 16.2155 24.1933 15.9172 24.1929C15.9166 24.1526 15.9162 24.1122 15.9162 24.0718C15.9162 24.1122 15.9159 24.1526 15.9153 24.1929C15.6175 24.1933 15.3654 24.3889 15.2803 24.6586C15.2604 24.7219 15.2496 24.7892 15.2496 24.8591C15.2496 24.8591 15.261 25.2385 15.2496 25.4812C15.1704 27.1672 14.5364 28.3706 13.6503 29.4968C12.2513 31.2746 10.0794 32.4164 7.64064 32.4164C3.42083 32.4164 0 28.998 0 24.7811C0 22.6319 0.888604 20.6901 2.3187 19.3026C3.56414 18.0942 5.02902 17.2407 7.0578 17.1677C7.251 17.1607 7.55283 17.1677 7.55283 17.1677C7.61104 17.1677 7.66752 17.1602 7.72134 17.1462C8.00793 17.0716 8.21948 16.8113 8.21948 16.5015C8.21948 16.4812 8.21857 16.4611 8.21678 16.4412L8.28008 16.441L8.21674 16.4407C8.19077 16.1539 7.98292 15.9196 7.70939 15.8538C7.65918 15.8417 7.60675 15.8353 7.55283 15.8353C7.55283 15.8353 7.27712 15.8412 7.10061 15.8353C5.29958 15.7757 3.99693 15.1034 2.81113 14.1357C1.09541 12.7356 0 10.605 0 8.2188C0 4.00194 3.42083 0.583496 7.64064 0.583496C9.81448 0.583496 11.7763 1.49069 13.1676 2.94688C14.326 4.15919 15.0889 5.75203 15.2496 7.51869C15.2683 7.72485 15.2616 8.01344 15.2636 8.224Z" fill="white"/>
<path d="M52.241 8.72755H48.864L45.1641 13.8958L41.5228 8.72755H37.911L43.3435 16.4505L37.5586 24.5258H40.9943L45.0173 18.829L49.0402 24.5258H52.6815L46.8379 16.2743L52.241 8.72755Z" fill="white"/>
<path d="M63.3893 18.1536C63.3893 21.2957 61.3925 22.5584 58.8965 22.5584C57.0171 22.5584 55.9013 21.6481 55.9013 20.2092C55.9013 18.183 58.4854 17.4783 63.3893 17.0084V18.1536ZM58.2211 24.9076C60.8052 24.9076 62.5671 24.056 63.5068 22.4409C63.5949 23.4687 63.6536 23.9092 63.771 24.5258H66.7075C66.4139 23.1163 66.267 21.2076 66.267 18.829C66.267 18.1536 66.3258 15.4227 66.3258 15.041C66.3551 10.3132 64.0353 8.3458 59.9536 8.3458C56.3417 8.3458 53.5521 10.3426 53.3172 13.7196H56.4005C56.5179 11.7521 57.7219 10.695 59.8362 10.695C61.7742 10.695 63.2425 11.6347 63.2425 14.4243V14.7473C57.1346 15.364 52.583 16.4211 52.583 20.2679C52.583 23.1457 55.0203 24.9076 58.2211 24.9076Z" fill="white"/>
<path d="M76.2644 6.78947C79.612 6.78947 80.8159 5.11568 81.0508 3.23633H78.7604C78.6429 4.2641 77.9382 4.93949 76.2937 4.93949C74.6493 4.93949 74.0033 4.2641 73.8858 3.23633H71.566C71.7128 5.11568 73.0343 6.78947 76.2644 6.78947ZM72.212 24.5258L79.935 13.1323V24.5258H82.9302V8.72755H79.935L72.212 20.1505V8.72755H69.2168V24.5258H72.212Z" fill="white"/>
<path d="M92.8316 22.2941C90.3356 22.2941 88.5444 20.5028 88.2214 17.5664H100.261C100.584 12.4275 97.7356 8.4339 92.861 8.4339C88.3682 8.4339 85.0793 11.6934 85.0793 16.5973C85.0793 21.1782 87.869 24.9076 92.9491 24.9076C96.9427 24.9076 99.3506 22.4996 100.055 19.8862H96.9721C96.2967 21.3838 95.0634 22.2941 92.8316 22.2941ZM92.8316 10.9299C95.3276 10.9299 97.0014 12.8386 97.0895 15.1584H88.2801C88.7206 12.1339 90.4531 10.9299 92.8316 10.9299Z" fill="white"/>
<path d="M102.258 8.72755V29.6647H105.312V22.2941C106.281 23.9385 107.896 24.9076 110.245 24.9076C113.916 24.9076 117.058 21.8242 117.058 16.656C117.058 11.4878 113.916 8.4339 110.245 8.4339C107.896 8.4339 106.281 9.40294 105.312 11.0474V8.72755H102.258ZM105.194 16.656C105.194 12.7505 107.191 10.9886 109.54 10.9886C112.095 10.9886 113.798 13.1029 113.798 16.656C113.798 20.2092 112.095 22.3528 109.54 22.3528C107.191 22.3528 105.194 20.5616 105.194 16.656Z" fill="white"/>
</g>
<defs>
<clipPath id="clip0_454_15668">
<rect width="117" height="31.8329" fill="white" transform="translate(0 0.583496)"/>
</clipPath>
</defs>
</svg>
