<svg width="106" height="35" viewBox="0 0 106 35" fill="none" xmlns="http://www.w3.org/2000/svg">
<g clip-path="url(#clip0_280_14113)">
<path d="M16.3027 8.66064C16.3027 8.70541 16.3136 8.74148 16.3205 8.78914C16.4164 9.09277 16.6811 9.28667 16.9998 9.28667C17.3189 9.28667 17.589 9.07684 17.6795 8.78771C17.7005 8.72058 17.7118 8.64918 17.7118 8.57513C17.7118 8.57513 17.6999 8.17102 17.7118 7.91252C17.8081 5.8167 18.6985 4.31862 19.9378 3.02234C21.4238 1.46814 23.5183 0.5 25.8392 0.5C30.3463 0.5 34 4.15116 34 8.65509C34 11.2048 32.829 13.4813 30.9952 14.9767C29.729 16.0092 28.1663 16.6693 26.4354 16.7901H25.9325C25.8749 16.7901 25.819 16.797 25.7653 16.8099C25.4732 16.8801 25.2512 17.1304 25.2234 17.4367L25.1558 17.437L25.2234 17.4372C25.2215 17.4585 25.2205 17.4799 25.2205 17.5017C25.2205 17.8325 25.4465 18.1106 25.7526 18.1903C25.81 18.2052 25.8704 18.2132 25.9325 18.2132C25.9325 18.2132 26.2552 18.2058 26.4617 18.2132C28.6275 18.2912 30.1913 19.2019 31.5213 20.4913C33.05 21.9735 34 24.0483 34 26.3449C34 30.8488 30.3463 34.5 25.8392 34.5C23.2354 34.5 20.9163 33.2814 19.4221 31.3837C18.4737 30.1792 17.7958 28.8912 17.7118 27.0875C17.6998 26.8303 17.7118 26.4282 17.7118 26.4282C17.7118 26.3541 17.7005 26.2826 17.6794 26.2155C17.589 25.9267 17.3194 25.7171 17.0008 25.7167C17.0001 25.6736 16.9998 25.6305 16.9998 25.5873C16.9998 25.6305 16.9994 25.6736 16.9988 25.7167C16.6806 25.7171 16.4114 25.926 16.3205 26.214C16.2992 26.2816 16.2877 26.3536 16.2877 26.4282C16.2877 26.4282 16.2999 26.8335 16.2877 27.0927C16.2031 28.8934 15.526 30.1788 14.5795 31.3816C13.0854 33.2805 10.7656 34.5 8.16079 34.5C3.65371 34.5 0 30.8488 0 26.3449C0 24.0494 0.949096 21.9754 2.47655 20.4934C3.80677 19.2028 5.37138 18.2912 7.53827 18.2132C7.74462 18.2058 8.067 18.2132 8.067 18.2132C8.12918 18.2132 8.18949 18.2052 8.24698 18.1903C8.55308 18.1106 8.77903 17.8325 8.77903 17.5017C8.77903 17.4799 8.77806 17.4585 8.77615 17.4372L8.84376 17.437L8.7761 17.4367C8.74836 17.1304 8.52637 16.8801 8.23421 16.8099C8.18058 16.797 8.12459 16.7901 8.067 16.7901C8.067 16.7901 7.77252 16.7964 7.58399 16.7901C5.66035 16.7265 4.26903 16.0084 3.0025 14.9748C1.16998 13.4794 0 11.2038 0 8.65509C0 4.15116 3.65371 0.5 8.16079 0.5C10.4826 0.5 12.578 1.46895 14.064 3.02427C15.3012 4.31912 16.1161 6.02038 16.2877 7.90731C16.3078 8.12751 16.3005 8.43574 16.3027 8.66064Z" fill="white"/>
</g>
<path d="M40.89 25.5H43.728L48.194 19.296L52.616 25.5H55.608L49.712 17.206L55.212 9.55H52.374L48.282 15.226L44.278 9.55H41.286L46.786 17.316L40.89 25.5ZM63.5043 20.726C63.5043 23.08 62.0083 24.026 60.1383 24.026C58.7303 24.026 57.8943 23.344 57.8943 22.266C57.8943 20.748 59.8303 20.22 63.5043 19.868V20.726ZM59.6323 25.786C61.5683 25.786 62.8883 25.148 63.5923 23.938C63.6583 24.708 63.7023 25.038 63.7903 25.5H65.9903C65.7703 24.444 65.6603 23.014 65.6603 21.232C65.6603 20.726 65.7043 18.68 65.7043 18.394C65.7263 14.852 63.9883 13.378 60.9303 13.378C58.2243 13.378 56.1343 14.874 55.9583 17.404H58.2683C58.3563 15.93 59.2583 15.138 60.8423 15.138C62.2943 15.138 63.3943 15.842 63.3943 17.932V18.174C58.8183 18.636 55.4083 19.428 55.4083 22.31C55.4083 24.466 57.2343 25.786 59.6323 25.786ZM73.4202 12.212C75.9282 12.212 76.8302 10.958 77.0062 9.55H75.2902C75.2022 10.32 74.6742 10.826 73.4422 10.826C72.2102 10.826 71.7262 10.32 71.6382 9.55H69.9002C70.0102 10.958 71.0002 12.212 73.4202 12.212ZM70.3842 25.5L76.1702 16.964V25.5H78.4142V13.664H76.1702L70.3842 22.222V13.664H68.1402V25.5H70.3842ZM86.1024 23.828C84.2324 23.828 82.8904 22.486 82.6484 20.286H91.6684C91.9104 16.436 89.7764 13.444 86.1244 13.444C82.7584 13.444 80.2944 15.886 80.2944 19.56C80.2944 22.992 82.3844 25.786 86.1904 25.786C89.1824 25.786 90.9864 23.982 91.5144 22.024H89.2044C88.6984 23.146 87.7744 23.828 86.1024 23.828ZM86.1024 15.314C87.9724 15.314 89.2264 16.744 89.2924 18.482H82.6924C83.0224 16.216 84.3204 15.314 86.1024 15.314ZM93.4345 13.664V29.35H95.7225V23.828C96.4485 25.06 97.6585 25.786 99.4185 25.786C102.169 25.786 104.523 23.476 104.523 19.604C104.523 15.732 102.169 13.444 99.4185 13.444C97.6585 13.444 96.4485 14.17 95.7225 15.402V13.664H93.4345ZM95.6345 19.604C95.6345 16.678 97.1305 15.358 98.8905 15.358C100.805 15.358 102.081 16.942 102.081 19.604C102.081 22.266 100.805 23.872 98.8905 23.872C97.1305 23.872 95.6345 22.53 95.6345 19.604Z" fill="white"/>
<defs>
<clipPath id="clip0_280_14113">
<rect width="34" height="34" fill="white" transform="translate(0 0.5)"/>
</clipPath>
</defs>
</svg>
