<svg width="149" height="41" viewBox="0 0 149 41" fill="none" xmlns="http://www.w3.org/2000/svg">
<g clip-path="url(#clip0_456_13817)">
<path d="M19.3563 9.6892C19.3563 9.74235 19.3692 9.78517 19.3775 9.84176C19.4913 10.2023 19.8057 10.4325 20.184 10.4325C20.5629 10.4325 20.8836 10.1834 20.991 9.84007C21.0159 9.76036 21.0294 9.67559 21.0294 9.58767C21.0294 9.58767 21.0153 9.10786 21.0294 8.80095C21.1437 6.31256 22.2008 4.53387 23.6723 2.99479C25.4366 1.14949 27.9235 0 30.6791 0C36.0304 0 40.3685 4.33505 40.3685 9.6826C40.3685 12.7099 38.9782 15.4128 36.8008 17.1883C35.2975 18.4142 33.4421 19.198 31.387 19.3414H30.7899C30.7215 19.3414 30.6551 19.3495 30.5914 19.3648C30.2445 19.4482 29.9809 19.7454 29.948 20.1091C29.9212 20.1093 29.8945 20.1094 29.8676 20.1094C29.8944 20.1094 29.9212 20.1095 29.9479 20.1097C29.9457 20.1349 29.9445 20.1604 29.9445 20.1862C29.9445 20.579 30.2128 20.9092 30.5762 21.0038C30.6445 21.0216 30.7161 21.031 30.7899 21.031C30.7899 21.031 31.173 21.0222 31.4182 21.031C33.9897 21.1236 35.8464 22.2049 37.4255 23.7359C39.2406 25.4956 40.3685 27.9591 40.3685 30.6859C40.3685 36.0334 36.0304 40.3685 30.6791 40.3685C27.5875 40.3685 24.8341 38.9216 23.06 36.6685C21.934 35.2384 21.1291 33.7091 21.0294 31.5675C21.0151 31.2622 21.0294 30.7847 21.0294 30.7847C21.0294 30.6968 21.0159 30.6119 20.9909 30.5322C20.8836 30.1893 20.5635 29.9405 20.1852 29.9399C20.1844 29.8888 20.184 29.8376 20.184 29.7863C20.184 29.8376 20.1836 29.8888 20.1828 29.9399C19.8051 29.9405 19.4854 30.1885 19.3775 30.5305C19.3522 30.6107 19.3386 30.6961 19.3386 30.7847C19.3386 30.7847 19.353 31.2659 19.3386 31.5737C19.2381 33.7117 18.4342 35.2379 17.3104 36.666C15.5364 38.9205 12.7821 40.3685 9.68937 40.3685C4.33808 40.3685 0 36.0334 0 30.6859C0 27.9604 1.12687 25.4979 2.94043 23.7383C4.51981 22.206 6.37748 21.1236 8.95025 21.031C9.19525 21.0222 9.57801 21.031 9.57801 21.031C9.65184 21.031 9.72345 21.0216 9.79171 21.0038C10.1551 20.9092 10.4234 20.579 10.4234 20.1862C10.4234 20.1604 10.4223 20.1349 10.42 20.1097C10.4467 20.1095 10.4735 20.1094 10.5003 20.1094C10.4735 20.1094 10.4467 20.1093 10.4199 20.1091C10.387 19.7454 10.1234 19.4483 9.77655 19.3648C9.71287 19.3495 9.64639 19.3414 9.57801 19.3414C9.57801 19.3414 9.22837 19.3488 9.00454 19.3414C6.72058 19.2658 5.06865 18.4132 3.5649 17.1861C1.38912 15.4105 0 12.7087 0 9.6826C0 4.33505 4.33808 0 9.68937 0C12.4461 0 14.9339 1.15044 16.6983 2.99709C18.1673 4.53447 19.1348 6.5544 19.3386 8.79476C19.3623 9.0562 19.3537 9.42217 19.3563 9.6892Z" fill="#131313"/>
<path d="M66.2482 10.3276H61.9657L57.2737 16.8816L52.6561 10.3276H48.0758L54.9649 20.1214L47.6289 30.362H51.9858L57.0875 23.1377L62.1892 30.362H66.8068L59.3963 19.8979L66.2482 10.3276Z" fill="#131313"/>
<path d="M80.3857 22.2812C80.3857 26.2657 77.8535 27.867 74.6882 27.867C72.305 27.867 70.8899 26.7126 70.8899 24.8879C70.8899 22.3184 74.1669 21.4247 80.3857 20.8289V22.2812ZM73.8318 30.8461C77.1087 30.8461 79.3431 29.7662 80.5347 27.718C80.6464 29.0214 80.7209 29.58 80.8698 30.362H84.5937C84.2213 28.5745 84.0351 26.154 84.0351 23.1377C84.0351 22.2812 84.1096 18.818 84.1096 18.3339C84.1468 12.3385 81.205 9.84352 76.0288 9.84352C71.4485 9.84352 67.9108 12.3757 67.6129 16.6582H71.523C71.6719 14.1632 73.1987 12.8226 75.8799 12.8226C78.3376 12.8226 80.1995 14.0142 80.1995 17.5519V17.9615C72.4539 18.7435 66.682 20.0841 66.682 24.9624C66.682 28.6118 69.7728 30.8461 73.8318 30.8461Z" fill="#131313"/>
<path d="M96.7131 7.86988C100.958 7.86988 102.485 5.74728 102.783 3.36401H99.8784C99.7294 4.66736 98.8357 5.52385 96.7503 5.52385C94.665 5.52385 93.8457 4.66736 93.6968 3.36401H90.7549C90.9411 5.74728 92.6169 7.86988 96.7131 7.86988ZM91.5742 30.362L101.368 15.9134V30.362H105.166V10.3276H101.368L91.5742 24.8134V10.3276H87.7758V30.362H91.5742Z" fill="#131313"/>
<path d="M117.723 27.5318C114.557 27.5318 112.286 25.2603 111.876 21.5364H127.144C127.554 15.0197 123.941 9.95524 117.76 9.95524C112.062 9.95524 107.892 14.0887 107.892 20.3076C107.892 26.1168 111.429 30.8461 117.872 30.8461C122.936 30.8461 125.99 27.7925 126.883 24.4783H122.973C122.117 26.3774 120.553 27.5318 117.723 27.5318ZM117.723 13.1205C120.888 13.1205 123.01 15.541 123.122 18.4829H111.951C112.509 14.6473 114.706 13.1205 117.723 13.1205Z" fill="#131313"/>
<path d="M129.676 10.3276V36.8787H133.549V27.5318C134.778 29.6172 136.826 30.8461 139.805 30.8461C144.46 30.8461 148.445 26.936 148.445 20.382C148.445 13.828 144.46 9.95524 139.805 9.95524C136.826 9.95524 134.778 11.1841 133.549 13.2695V10.3276H129.676ZM133.4 20.382C133.4 15.4293 135.933 13.195 138.912 13.195C142.151 13.195 144.311 15.8762 144.311 20.382C144.311 24.8879 142.151 27.6063 138.912 27.6063C135.933 27.6063 133.4 25.3348 133.4 20.382Z" fill="#131313"/>
</g>
<defs>
<clipPath id="clip0_456_13817">
<rect width="148.372" height="40.3685" fill="white"/>
</clipPath>
</defs>
</svg>
