<svg width="355" height="194" viewBox="0 0 355 194" fill="none" xmlns="http://www.w3.org/2000/svg">
<g filter="url(#filter0_dddd_336_14059)">
<path d="M16 98.3551C16 88.7278 23.8045 80.9233 33.4317 80.9233H321.568C331.196 80.9233 339 88.7278 339 98.3551V149.625C339 159.252 331.196 167.057 321.568 167.057H33.4317C23.8044 167.057 16 159.252 16 149.625V98.3551Z" fill="white"/>
<path d="M50.9589 93.657C38.4974 93.657 30.2165 101.456 30.4577 113.113H38.9798C38.9798 103.707 44.7684 100.33 50.7178 100.33C57.0691 100.33 60.9282 104.028 60.9282 109.897C60.9282 120.027 49.0294 130.479 29.0106 145.754V152.99H71.219V145.433H39.8642C56.8279 133.454 69.6914 121.796 69.6914 109.013C69.6914 99.124 61.7321 93.657 50.9589 93.657ZM95.5799 147.282C87.6206 147.282 83.6007 142.136 82.7164 135.383H74.3551C74.9983 145.352 81.9124 154.035 95.4191 154.035C106.755 154.035 116.885 148.327 116.885 136.509C116.885 130.559 114.152 124.61 106.273 122.037C112.061 119.545 115.358 114.56 115.358 108.691C115.358 97.7573 106.112 93.657 96.2231 93.657C83.6811 93.657 76.0434 100.893 75.1591 111.586H83.5203C84.4047 104.832 88.4246 100.33 95.8211 100.33C101.69 100.33 106.594 103.305 106.594 109.415C106.594 115.847 101.77 118.741 92.0424 118.741H90.3541V126.057H92.364C101.368 126.057 108.122 128.63 108.122 136.669C108.122 143.423 102.896 147.282 95.5799 147.282Z" fill="#2F2F2F"/>
<path d="M127.575 148.201C127.575 145.253 129.158 144.017 130.849 144.017C132.583 144.017 134.144 145.318 134.144 148.201C134.144 151.041 132.583 152.364 130.849 152.364C129.158 152.364 127.575 151.063 127.575 148.201ZM130.849 142.109C128.095 142.109 125.19 143.974 125.19 148.201C125.19 152.407 128.095 154.272 130.849 154.272C133.624 154.272 136.529 152.407 136.529 148.201C136.529 143.974 133.624 142.109 130.849 142.109ZM147.247 144.126V142.326H136.775V144.126H140.894V153.99H143.149V144.126H147.247ZM156.411 153.99H159.121L154.329 147.898L158.731 142.326H156.107L152.552 147.052H151.121V142.326H148.866V153.99H151.121V148.852H152.487L156.411 153.99ZM170.126 142.326H162.148L161.974 145.968C161.736 150.413 161.064 152.191 159.676 152.191H159.438V153.99H159.85C162.863 153.99 163.904 151.237 164.142 146.315L164.251 144.126H167.871V153.99H170.126V142.326ZM175.262 153.99L180.964 145.578V153.99H183.175V142.326H180.964L175.262 150.76V142.326H173.05V153.99H175.262ZM193.672 153.99H196.382L191.59 147.898L195.991 142.326H193.368L189.813 147.052H188.382V142.326H186.127V153.99H188.382V148.852H189.748L193.672 153.99ZM204.792 149.285C204.792 151.605 203.318 152.537 201.475 152.537C200.087 152.537 199.263 151.865 199.263 150.803C199.263 149.307 201.171 148.787 204.792 148.44V149.285ZM200.976 154.272C202.884 154.272 204.185 153.643 204.879 152.451C204.944 153.21 204.987 153.535 205.074 153.99H207.242C207.025 152.949 206.917 151.54 206.917 149.784C206.917 149.285 206.96 147.269 206.96 146.987C206.982 143.497 205.269 142.044 202.255 142.044C199.589 142.044 197.529 143.519 197.356 146.012H199.632C199.719 144.559 200.608 143.779 202.169 143.779C203.599 143.779 204.683 144.472 204.683 146.532V146.771C200.174 147.226 196.814 148.006 196.814 150.846C196.814 152.971 198.613 154.272 200.976 154.272Z" fill="#2F2F2F"/>
<path fill-rule="evenodd" clip-rule="evenodd" d="M295.723 91.47C304.312 91.47 312.395 94.7923 318.517 100.849C324.734 107.007 328.157 115.227 328.157 123.99C328.157 132.695 324.763 140.877 318.591 147.029C312.462 153.144 304.342 156.51 295.716 156.51H295.557C290.636 156.488 285.911 155.385 281.518 153.238C280.411 152.702 279.137 152.68 278.016 153.195C274.1 154.987 269.672 156.096 264.86 156.503C264.281 156.553 263.716 156.285 263.391 155.799C263.065 155.312 263.029 154.689 263.289 154.166L268.065 144.664C268.688 143.416 268.637 141.958 267.913 140.754C264.896 135.742 263.29 129.974 263.275 124.091C263.246 115.445 266.554 107.298 272.589 101.154C278.615 95.0099 286.691 91.5717 295.317 91.47H295.723ZM290.915 136.631L288.57 138.917L276.657 127.306L288.57 115.695L290.915 117.981L283.039 125.646H303.051C306.039 125.646 308.464 123.282 308.464 120.357C308.464 117.458 306.026 115.082 303.051 115.082H301.583V111.773H303.051C307.913 111.773 311.858 115.618 311.858 120.357C311.858 125.096 307.913 128.967 303.051 128.967H283.039L290.915 136.631Z" fill="#2F2F2F"/>
</g>
<path opacity="0.4" d="M36.0159 44.5081V39.7483H40.8406V37.6713H36.0159V32.9548H33.8524V37.6713H29.0061V39.7483H33.8524V44.5081H36.0159ZM47.5635 44.5081V28.8224H45.9408C45.1619 30.51 43.9504 30.7912 41.7219 30.8561V32.3922H45.2918V44.5081H47.5635Z" fill="black"/>
<path opacity="0.06" d="M35.7151 20.9714V16.2117H40.5398V14.1347H35.7151V9.41814H33.5516V14.1347H28.7053V16.2117H33.5516V20.9714H35.7151ZM47.2627 20.9714V5.28579H45.64C44.8612 6.97335 43.6496 7.25461 41.4211 7.31951V8.85562H44.991V20.9714H47.2627Z" fill="black"/>
<path d="M36.3519 70.0435V65.2837H41.1765V63.2067H36.3519V58.4902H34.1883V63.2067H29.342V65.2837H34.1883V70.0435H36.3519ZM47.8994 70.0435V54.3578H46.2768C45.4979 56.0454 44.2863 56.3266 42.0579 56.3915V57.9276H45.6277V70.0435H47.8994Z" fill="#2F2F2F"/>
<defs>
<filter id="filter0_dddd_336_14059" x="0.908259" y="77.1504" width="353.183" height="116.317" filterUnits="userSpaceOnUse" color-interpolation-filters="sRGB">
<feFlood flood-opacity="0" result="BackgroundImageFix"/>
<feColorMatrix in="SourceAlpha" type="matrix" values="0 0 0 0 0 0 0 0 0 0 0 0 0 0 0 0 0 0 127 0" result="hardAlpha"/>
<feOffset/>
<feGaussianBlur stdDeviation="0.235808"/>
<feColorMatrix type="matrix" values="0 0 0 0 0 0 0 0 0 0 0 0 0 0 0 0 0 0 0.04 0"/>
<feBlend mode="normal" in2="BackgroundImageFix" result="effect1_dropShadow_336_14059"/>
<feColorMatrix in="SourceAlpha" type="matrix" values="0 0 0 0 0 0 0 0 0 0 0 0 0 0 0 0 0 0 127 0" result="hardAlpha"/>
<feOffset dy="1.88647"/>
<feGaussianBlur stdDeviation="1.88647"/>
<feColorMatrix type="matrix" values="0 0 0 0 0 0 0 0 0 0 0 0 0 0 0 0 0 0 0.04 0"/>
<feBlend mode="normal" in2="effect1_dropShadow_336_14059" result="effect2_dropShadow_336_14059"/>
<feColorMatrix in="SourceAlpha" type="matrix" values="0 0 0 0 0 0 0 0 0 0 0 0 0 0 0 0 0 0 127 0" result="hardAlpha"/>
<feOffset dy="7.54587"/>
<feGaussianBlur stdDeviation="5.6594"/>
<feColorMatrix type="matrix" values="0 0 0 0 0 0 0 0 0 0 0 0 0 0 0 0 0 0 0.04 0"/>
<feBlend mode="normal" in2="effect2_dropShadow_336_14059" result="effect3_dropShadow_336_14059"/>
<feColorMatrix in="SourceAlpha" type="matrix" values="0 0 0 0 0 0 0 0 0 0 0 0 0 0 0 0 0 0 127 0" result="hardAlpha"/>
<feOffset dy="11.3188"/>
<feGaussianBlur stdDeviation="7.54587"/>
<feColorMatrix type="matrix" values="0 0 0 0 0 0 0 0 0 0 0 0 0 0 0 0 0 0 0.04 0"/>
<feBlend mode="normal" in2="effect3_dropShadow_336_14059" result="effect4_dropShadow_336_14059"/>
<feBlend mode="normal" in="SourceGraphic" in2="effect4_dropShadow_336_14059" result="shape"/>
</filter>
</defs>
</svg>
