<svg width="582" height="308" fill="none" xmlns="http://www.w3.org/2000/svg">
  <g filter="url(#a)">
    <path d="M25 151.437c0-16.369 13.2693-29.638 29.6379-29.638H527.362c16.369 0 29.638 13.269 29.638 29.638v82.986c0 16.369-13.269 29.638-29.638 29.638H54.6379C38.2693 264.061 25 250.792 25 234.423v-82.986Z" fill="#fff"/>
    <path d="M82.3498 144.096c-20.4427 0-34.0273 12.793-33.6316 31.917h13.9802c0-15.431 9.496-20.97 19.2557-20.97 10.4192 0 16.7499 6.067 16.7499 15.695 0 16.618-19.5195 33.763-52.3598 58.822v11.87h69.2418v-12.398H64.1492c27.8285-19.651 48.9308-38.775 48.9308-59.745 0-16.222-13.057-25.191-30.7302-25.191Zm73.1992 87.97c-13.057 0-19.651-8.441-21.102-19.52H120.73c1.055 16.355 12.398 30.598 34.555 30.598 18.596 0 35.214-9.364 35.214-28.751 0-9.76-4.484-19.52-17.409-23.74 9.496-4.089 14.904-12.266 14.904-21.894 0-17.937-15.168-24.663-31.39-24.663-20.575 0-33.104 11.87-34.555 29.411h13.717c1.45-11.078 8.045-18.464 20.179-18.464 9.628 0 17.673 4.88 17.673 14.903 0 10.551-7.914 15.299-23.872 15.299h-2.77v12.002h3.297c14.772 0 25.851 4.221 25.851 17.41 0 11.078-8.573 17.409-20.575 17.409Zm52.283-.132c0-4.837 2.597-6.864 5.371-6.864 2.845 0 5.406 2.134 5.406 6.864 0 4.659-2.561 6.829-5.406 6.829-2.774 0-5.371-2.134-5.371-6.829Zm5.371-9.994c-4.517 0-9.283 3.059-9.283 9.994 0 6.9 4.766 9.958 9.283 9.958 4.552 0 9.318-3.058 9.318-9.958 0-6.935-4.766-9.994-9.318-9.994Zm26.9 3.308v-2.952h-17.178v2.952h6.757v16.182h3.699v-16.182h6.722Zm15.033 16.182h4.446l-7.86-9.994 7.22-9.14h-4.304l-5.832 7.753h-2.348v-7.753h-3.698v19.134h3.698v-8.429h2.241l6.437 8.429Zm22.5-19.134h-13.088l-.285 5.975c-.391 7.291-1.494 10.207-3.77 10.207h-.391v2.952h.676c4.943 0 6.65-4.517 7.042-12.59l.177-3.592h5.94v16.182h3.699v-19.134Zm8.425 19.134 9.354-13.799v13.799h3.627v-19.134h-3.627l-9.354 13.835v-13.835h-3.628v19.134h3.628Zm30.201 0h4.445l-7.86-9.994 7.22-9.14h-4.303l-5.833 7.753h-2.347v-7.753h-3.699v19.134h3.699v-8.429h2.24l6.438 8.429Zm18.242-7.718c0 3.806-2.418 5.335-5.441 5.335-2.277 0-3.628-1.102-3.628-2.845 0-2.454 3.13-3.308 9.069-3.877v1.387Zm-6.259 8.18c3.129 0 5.263-1.031 6.401-2.987.107 1.245.178 1.778.32 2.525h3.557c-.356-1.707-.534-4.019-.534-6.9 0-.818.072-4.125.072-4.588.035-5.726-2.775-8.109-7.718-8.109-4.375 0-7.753 2.419-8.038 6.509h3.734c.143-2.383 1.601-3.663 4.162-3.663 2.347 0 4.125 1.138 4.125 4.516v.392c-7.397.747-12.91 2.027-12.91 6.686 0 3.485 2.952 5.619 6.829 5.619Z" fill="#2F2F2F"/>
    <path fill-rule="evenodd" clip-rule="evenodd" d="M486.01 139.582c14.09 0 27.351 5.45 37.394 15.386 10.197 10.102 15.814 23.586 15.814 37.962 0 14.28-5.568 27.702-15.694 37.795-10.055 10.032-23.375 15.553-37.526 15.553h-.26c-8.073-.036-15.825-1.845-23.03-5.367-1.817-.881-3.906-.917-5.746-.072-6.423 2.94-13.688 4.76-21.582 5.427-.95.083-1.876-.357-2.41-1.155-.534-.798-.594-1.821-.166-2.678l7.835-15.589c1.021-2.047.938-4.438-.249-6.414-4.951-8.222-7.586-17.683-7.61-27.334-.047-14.184 5.379-27.548 15.279-37.627 9.887-10.08 23.135-15.72 37.286-15.887h.665Zm-7.886 74.085-3.849 3.751-19.542-19.048 19.542-19.048 3.849 3.751-12.921 12.573h32.829c4.902 0 8.879-3.877 8.879-8.675 0-4.757-3.999-8.655-8.879-8.655h-2.408v-5.427h2.408c7.976 0 14.447 6.307 14.447 14.082 0 7.774-6.471 14.123-14.447 14.123h-32.829l12.921 12.573Z" fill="#2F2F2F"/>
  </g>
  <path opacity=".4" d="M54.8505 73.6689v-6.6011h6.6912v-2.8805h-6.6912v-6.5412H51.85v6.5412h-6.7212v2.8805H51.85v6.6011h3.0005Zm16.0148 0V51.9151h-2.2504c-1.0802 2.3405-2.7605 2.7305-5.851 2.8205v2.1304h4.9509v16.8029h3.1505Z" fill="#000"/>
  <path opacity=".06" d="M54.4325 40.6953v-6.6011h6.6912v-2.8805h-6.6912v-6.5412H51.432v6.5412h-6.7212v2.8805h6.7212v6.6011h3.0005Zm16.0148 0V18.9415h-2.2504c-1.0801 2.3404-2.7604 2.7305-5.851 2.8205v2.1304h4.9509v16.8029h3.1505Z" fill="#000"/>
  <path d="M55.3192 109.443v-6.601h6.6912v-2.8805h-6.6912v-6.5412h-3.0005v6.5412h-6.7212v2.8805h6.7212v6.601h3.0005Zm16.0149 0V87.6893h-2.2504c-1.0802 2.3404-2.7605 2.7305-5.8511 2.8205v2.1304h4.9509v16.8028h3.1506Z" fill="#2F2F2F"/>
  <defs>
    <filter id="a" x=".2425" y="115.61" width="581.515" height="191.777" filterUnits="userSpaceOnUse" color-interpolation-filters="sRGB">
      <feFlood flood-opacity="0" result="BackgroundImageFix"/>
      <feColorMatrix in="SourceAlpha" values="0 0 0 0 0 0 0 0 0 0 0 0 0 0 0 0 0 0 127 0" result="hardAlpha"/>
      <feOffset/>
      <feGaussianBlur stdDeviation=".386836"/>
      <feColorMatrix values="0 0 0 0 0 0 0 0 0 0 0 0 0 0 0 0 0 0 0.04 0"/>
      <feBlend in2="BackgroundImageFix" result="effect1_dropShadow_503_14140"/>
      <feColorMatrix in="SourceAlpha" values="0 0 0 0 0 0 0 0 0 0 0 0 0 0 0 0 0 0 127 0" result="hardAlpha"/>
      <feOffset dy="3.09469"/>
      <feGaussianBlur stdDeviation="3.09469"/>
      <feColorMatrix values="0 0 0 0 0 0 0 0 0 0 0 0 0 0 0 0 0 0 0.04 0"/>
      <feBlend in2="effect1_dropShadow_503_14140" result="effect2_dropShadow_503_14140"/>
      <feColorMatrix in="SourceAlpha" values="0 0 0 0 0 0 0 0 0 0 0 0 0 0 0 0 0 0 127 0" result="hardAlpha"/>
      <feOffset dy="12.3787"/>
      <feGaussianBlur stdDeviation="9.28406"/>
      <feColorMatrix values="0 0 0 0 0 0 0 0 0 0 0 0 0 0 0 0 0 0 0.04 0"/>
      <feBlend in2="effect2_dropShadow_503_14140" result="effect3_dropShadow_503_14140"/>
      <feColorMatrix in="SourceAlpha" values="0 0 0 0 0 0 0 0 0 0 0 0 0 0 0 0 0 0 127 0" result="hardAlpha"/>
      <feOffset dy="18.5681"/>
      <feGaussianBlur stdDeviation="12.3787"/>
      <feColorMatrix values="0 0 0 0 0 0 0 0 0 0 0 0 0 0 0 0 0 0 0.04 0"/>
      <feBlend in2="effect3_dropShadow_503_14140" result="effect4_dropShadow_503_14140"/>
      <feBlend in="SourceGraphic" in2="effect4_dropShadow_503_14140" result="shape"/>
    </filter>
  </defs>
</svg>
