<svg width="40" height="40" viewBox="0 0 40 40" fill="none" xmlns="http://www.w3.org/2000/svg">
<path d="M26.1333 0C37.3333 0 40 2.66667 40 13.8667V26.1333C40 37.3333 37.3333 40 26.1333 40H13.8667C2.66667 40 0 37.3333 0 26.1333V13.8667C0 2.66667 2.66667 0 13.8667 0H26.1333Z" fill="#131313"/>
<path d="M10.4167 12.5H7.50001C6.66668 12.5 6.5 12.8923 6.5 13.3249C6.5 14.0974 7.48882 17.929 11.1041 22.9966C13.5143 26.4573 16.91 28.3333 20 28.3333C21.854 28.3333 22.0833 27.9167 22.0833 27.199V24.5833C22.0833 23.75 22.259 23.5837 22.8461 23.5837C23.2787 23.5837 24.0203 23.8 25.7507 25.4686C27.7283 27.4462 28.0543 28.3333 29.1667 28.3333H32.0833C32.9167 28.3333 33.3333 27.9167 33.093 27.0944C32.8299 26.2749 31.8857 25.0859 30.6329 23.6764C29.9531 22.873 28.9334 22.0078 28.6244 21.5751C28.1918 21.019 28.3154 20.7718 28.6244 20.2774L28.6763 20.2038C29.1158 19.5792 32.2044 15.1502 32.5487 13.5721C32.734 12.9541 32.5487 12.5 31.6667 12.5H28.75C28.0084 12.5 27.6665 12.8923 27.4811 13.3249C27.4811 13.3249 25.9978 16.9402 23.8967 19.2886C23.2169 19.9684 22.9079 20.1847 22.537 20.1847C22.3517 20.1847 22.0833 19.9684 22.0833 19.3504V13.5721C22.0833 12.8305 21.8681 12.5 21.25 12.5H16.6667C16.2032 12.5 15.9245 12.8442 15.9245 13.1704C15.9245 13.8734 16.9751 14.0356 17.0833 16.0132V20.3083C17.0833 21.25 16.9133 21.4207 16.5425 21.4207C15.5537 21.4207 13.1485 17.7893 11.722 13.6339C11.4425 12.8262 11.1621 12.5 10.4167 12.5Z" fill="white"/>
</svg>
